<svg width="492" height="300" viewBox="0 0 492 300" fill="none" xmlns="http://www.w3.org/2000/svg">
<path d="M70.2368 38.0038H29.5953V51.2718H70.2368V38.0038Z" fill="#EBEBEB"/>
<path d="M222.157 267.935H181.515V281.203H222.157V267.935Z" fill="#EBEBEB"/>
<path d="M47.5696 21.2736C40.8191 21.3921 23.5153 21.6886 16.996 21.7716H6.9281L7.45982 21.2261V34.4941L6.88186 33.9013C13.6323 33.9013 30.8437 33.9962 37.363 34.091L47.5234 34.2214L47.2459 34.4941L47.5234 21.2261L47.5696 21.2736ZM47.5696 21.2736L47.8355 34.5416V34.8261H47.558C42.4836 34.8973 32.3001 35.0159 27.2373 35.0514L6.91654 35.1344H6.33859V20.74H17.1116C23.5846 20.8111 40.8076 21.1076 47.5002 21.2261L47.5696 21.2736Z" fill="#EBEBEB"/>
<path d="M410.985 361.902C404.235 362.009 386.931 362.305 380.423 362.388H370.355L370.875 361.855V375.122L370.309 374.53L390.618 374.601C395.681 374.601 405.887 374.767 410.939 374.838L410.673 375.122L410.939 361.855L410.985 361.902ZM410.985 361.902L411.309 375.17V375.443H411.02C405.957 375.514 395.773 375.632 390.699 375.68L370.39 375.751H369.8V361.345H380.573C387.046 361.416 404.281 361.724 410.962 361.843L410.985 361.902Z" fill="#EBEBEB"/>
<path d="M388.318 345.172C381.567 345.278 364.263 345.575 357.744 345.658H347.676L348.208 345.124V358.392L347.63 357.799C354.381 357.799 371.592 357.882 378.111 357.977L388.272 358.108L387.994 358.392L388.272 345.124L388.318 345.172ZM388.318 345.172L388.595 358.44V358.712H388.318C383.243 358.784 373.071 358.902 367.997 358.95L347.676 359.021H347.098V358.428L347.156 345.16V344.614H357.987C364.46 344.686 381.694 344.994 388.376 345.112L388.318 345.172Z" fill="#EBEBEB"/>
<path d="M365.743 361.902H325.102V375.17H365.743V361.902Z" fill="#EBEBEB"/>
<path d="M485.101 21.2736H444.46V34.5416H485.101V21.2736Z" fill="#EBEBEB"/>
<path d="M462.434 486.021H421.793V499.289H462.434V486.021Z" fill="#EBEBEB"/>
<path d="M485.101 469.291C478.351 469.409 461.047 469.706 454.528 469.789H444.46L444.992 469.243V482.511L444.414 481.919C451.164 481.919 468.376 482.002 474.895 482.108L485.055 482.227L484.778 482.511L485.055 469.243L485.101 469.291ZM485.101 469.291L485.379 482.559V482.844H485.101C480.027 482.915 469.855 483.033 464.781 483.069L444.46 483.152H443.882V482.595L443.94 469.327V468.781H454.713C461.186 468.852 478.42 469.149 485.101 469.267V469.291Z" fill="#EBEBEB"/>
<path d="M70.2368 486.021C63.4864 486.14 46.1825 486.436 39.6632 486.507L29.5953 486.567L30.127 486.021V499.289L29.5491 498.696C36.2996 498.696 53.5109 498.779 60.0302 498.874L70.1906 499.005L69.9132 499.289L70.1906 486.021H70.2368ZM70.2368 486.021L70.5142 499.289V499.574H70.2368C65.1624 499.645 54.9789 499.763 49.9161 499.799L29.5953 499.882H29.0174V485.476H39.7904C46.2634 485.547 63.4864 485.843 70.179 485.962L70.2368 486.021Z" fill="#EBEBEB"/>
<path d="M449.511 -32H448.355V44.4422H449.511V-32Z" fill="#C7C7C7"/>
<path d="M406.546 86.3567L409.956 94.0401H487.91L491.32 86.3567L458.123 62.785H439.732L406.546 86.3567Z" fill="#EBEBEB"/>
<path d="M437.432 40.0788L439.732 62.785H458.123L460.423 40.0788H437.432Z" fill="#DBDBDB"/>
<path d="M406.546 86.3567L409.956 94.0519H487.922L491.32 86.3567H406.546Z" fill="#DBDBDB"/>
<path d="M43.6742 -32H42.5183V44.4422H43.6742V-32Z" fill="#C7C7C7"/>
<path d="M0.709351 86.3567L4.11926 94.0401H82.0848L85.4832 86.3567L52.2972 62.785H33.9068L0.709351 86.3567Z" fill="#EBEBEB"/>
<path d="M31.595 40.0788L33.9068 62.785H52.2972L54.5975 40.0788H31.595Z" fill="#DBDBDB"/>
<path d="M0.709351 86.3567L4.11926 94.0519H82.0848L85.4832 86.3567H0.709351Z" fill="#DBDBDB"/>
<path d="M8.52325 524.319C160.675 523.596 331.355 523.584 483.506 524.319C331.355 525.055 160.675 525.043 8.52325 524.319Z" fill="#263238"/>
<path d="M411.228 49.0427H80.6284V254.205H411.228V49.0427Z" fill="#EBEBEB"/>
<path d="M419.273 30.9845H72.7567V49.0427H419.273V30.9845Z" fill="#263238"/>
<path d="M411.228 49.0427H80.6284V57.556H411.228V49.0427Z" fill="#DBDBDB"/>
<path d="M104.729 73.4444L195.063 73.2429L285.396 73.4444L195.063 73.6342L104.729 73.4444Z" fill="#C7C7C7"/>
<path d="M104.729 80.9974L195.063 80.7958L285.396 80.9974L195.063 81.1989L104.729 80.9974Z" fill="#C7C7C7"/>
<path d="M104.729 88.5503L195.063 88.3487L285.396 88.5503L195.063 88.7519L104.729 88.5503Z" fill="#C7C7C7"/>
<path d="M104.729 96.1151L195.063 95.9135L285.396 96.1151L195.063 96.3166L104.729 96.1151Z" fill="#C7C7C7"/>
<path d="M104.729 103.668L195.063 103.466L285.396 103.668L195.063 103.87L104.729 103.668Z" fill="#C7C7C7"/>
<path d="M104.729 111.221L195.063 111.031L285.396 111.221L195.063 111.422L104.729 111.221Z" fill="#C7C7C7"/>
<path d="M104.729 118.786L195.063 118.584L285.396 118.786L195.063 118.987L104.729 118.786Z" fill="#C7C7C7"/>
<path d="M104.729 126.339L195.063 126.137L285.396 126.339L195.063 126.54L104.729 126.339Z" fill="#C7C7C7"/>
<path d="M104.729 133.892L195.063 133.702L285.396 133.892L195.063 134.093L104.729 133.892Z" fill="#C7C7C7"/>
<path d="M104.729 141.456L195.063 141.255L285.396 141.456L195.063 141.658L104.729 141.456Z" fill="#C7C7C7"/>
<path d="M104.729 149.009L195.063 148.808L285.396 149.009L195.063 149.211L104.729 149.009Z" fill="#C7C7C7"/>
<path d="M104.729 156.562L195.063 156.372L285.396 156.562L195.063 156.764L104.729 156.562Z" fill="#C7C7C7"/>
<path d="M104.729 164.127L195.063 163.925L285.396 164.127L195.063 164.328L104.729 164.127Z" fill="#C7C7C7"/>
<path d="M104.729 171.68L195.063 171.478L285.396 171.68L195.063 171.881L104.729 171.68Z" fill="#C7C7C7"/>
<path d="M104.729 179.245L195.063 179.043L285.396 179.245L195.063 179.434L104.729 179.245Z" fill="#C7C7C7"/>
<path d="M137.522 126.339H123.824V188.054H137.522V126.339Z" fill="#455A64"/>
<path d="M162.94 100.241H149.243V188.054H162.94V100.241Z" fill="#29373A"/>
<path d="M188.358 88.3843H174.661V188.054H188.358V88.3843Z" fill="#455A64"/>
<path d="M213.777 103.846H200.079V188.054H213.777V103.846Z" fill="#29373A"/>
<path d="M239.183 108.435H225.486V188.043H239.183V108.435Z" fill="#455A64"/>
<path d="M264.602 153.55H250.904V188.054H264.602V153.55Z" fill="#29373A"/>
<path d="M109.618 68.1325L109.919 98.1189L110.127 128.093C110.266 148.084 110.335 168.071 110.335 188.054L109.618 187.355H153.543L197.467 187.438L241.391 187.687L285.315 188.126L241.391 188.564L197.467 188.801L153.543 188.896H108.89V188.161C108.89 168.17 108.96 148.191 109.11 128.2L109.318 98.2256L109.618 68.1325Z" fill="#C7C7C7"/>
<path d="M137.522 194.386H123.824V195.655H137.522V194.386Z" fill="#C7C7C7"/>
<path d="M162.94 194.386H149.243V195.655H162.94V194.386Z" fill="#C7C7C7"/>
<path d="M188.358 194.386H174.661V195.655H188.358V194.386Z" fill="#C7C7C7"/>
<path d="M213.777 194.386H200.079V195.655H213.777V194.386Z" fill="#C7C7C7"/>
<path d="M239.183 194.386H225.486V195.655H239.183V194.386Z" fill="#C7C7C7"/>
<path d="M264.602 194.386H250.904V195.655H264.602V194.386Z" fill="#C7C7C7"/>
<path d="M155.207 216.061H123.281V218.871H155.207V216.061Z" fill="#C7C7C7"/>
<path d="M166.419 221.942H123.281V224.752H166.419V221.942Z" fill="#C7C7C7"/>
<path d="M146.168 227.823H123.281V230.633H146.168V227.823Z" fill="#C7C7C7"/>
<path d="M116.161 216.061H109.503V222.89H116.161V216.061Z" fill="#455A64"/>
<path d="M237.01 216.061H199.062V218.871H237.01V216.061Z" fill="#C7C7C7"/>
<path d="M229.081 221.942H199.062V224.752H229.081V221.942Z" fill="#C7C7C7"/>
<path d="M242.2 227.823H199.062V230.633H242.2V227.823Z" fill="#C7C7C7"/>
<path d="M191.942 216.061H185.284V222.89H191.942V216.061Z" fill="#29373A"/>
<path d="M346.786 97.0518C346.781 100.692 345.485 104.207 343.141 106.94C340.796 109.672 337.562 111.437 334.043 111.905C330.523 112.373 326.958 111.512 324.012 109.482C321.065 107.452 318.939 104.393 318.03 100.874C317.121 97.3546 317.49 93.6164 319.069 90.3561C320.648 87.0959 323.33 84.5361 326.613 83.154C329.896 81.772 333.558 81.662 336.914 82.8447C340.271 84.0274 343.093 86.4219 344.856 89.5818C346.123 91.8565 346.789 94.4317 346.786 97.0518Z" fill="#455A64"/>
<path d="M344.856 89.5818L332.141 97.0518V82.0289C334.721 82.0262 337.257 82.7234 339.49 84.0498C341.722 85.3763 343.574 87.2848 344.856 89.5818Z" fill="#29373A"/>
<path d="M342.176 98.3094C342.857 92.6157 338.91 87.4334 333.359 86.7343C327.809 86.0352 322.757 90.0841 322.075 95.7778C321.394 101.471 325.341 106.654 330.891 107.353C336.442 108.052 341.494 104.003 342.176 98.3094Z" fill="white"/>
<path d="M336.36 94.7397H327.922V95.9609H336.36V94.7397Z" fill="#263238"/>
<path d="M338.452 98.1308H325.841V99.352H338.452V98.1308Z" fill="#A6A6A6"/>
<path d="M346.786 135.848C346.791 136.586 346.737 137.324 346.624 138.053C346.063 141.893 344.072 145.359 341.07 147.724C338.069 150.088 334.29 151.167 330.529 150.733C326.769 150.299 323.318 148.386 320.904 145.396C318.489 142.407 317.299 138.573 317.583 134.702C317.867 130.831 319.604 127.223 322.427 124.638C325.25 122.053 328.941 120.691 332.723 120.84C336.505 120.988 340.083 122.635 342.706 125.434C345.329 128.233 346.791 131.966 346.786 135.848Z" fill="#455A64"/>
<path d="M346.786 135.848C346.791 136.586 346.737 137.324 346.624 138.053L332.141 135.848V120.825C334.065 120.822 335.971 121.208 337.749 121.962C339.527 122.716 341.143 123.823 342.504 125.218C343.864 126.614 344.943 128.271 345.678 130.095C346.413 131.919 346.789 133.874 346.786 135.848Z" fill="#29373A"/>
<path d="M332.141 146.235C337.733 146.235 342.267 141.584 342.267 135.848C342.267 130.111 337.733 125.461 332.141 125.461C326.549 125.461 322.015 130.111 322.015 135.848C322.015 141.584 326.549 146.235 332.141 146.235Z" fill="white"/>
<path d="M336.36 133.536H327.922V134.757H336.36V133.536Z" fill="#263238"/>
<path d="M338.441 136.939H325.83V138.16H338.441V136.939Z" fill="#A6A6A6"/>
<path d="M346.786 174.644C346.788 177.683 345.891 180.651 344.213 183.156C342.535 185.66 340.155 187.583 337.389 188.671C335.715 189.336 333.935 189.673 332.141 189.667C329.241 189.669 326.406 188.789 323.994 187.138C321.582 185.487 319.701 183.139 318.59 180.391C317.48 177.644 317.188 174.62 317.754 171.702C318.319 168.784 319.715 166.104 321.765 164.001C323.816 161.898 326.429 160.466 329.273 159.886C332.117 159.306 335.065 159.605 337.744 160.744C340.422 161.884 342.711 163.813 344.321 166.287C345.931 168.761 346.789 171.669 346.786 174.644Z" fill="#455A64"/>
<path d="M346.786 174.644C346.788 177.683 345.891 180.651 344.213 183.156C342.535 185.66 340.155 187.583 337.389 188.671L332.141 174.644V159.621C334.065 159.618 335.971 160.005 337.749 160.758C339.527 161.512 341.143 162.619 342.504 164.014C343.864 165.41 344.943 167.067 345.678 168.891C346.413 170.715 346.789 172.67 346.786 174.644Z" fill="#29373A"/>
<path d="M332.141 185.031C337.733 185.031 342.267 180.381 342.267 174.644C342.267 168.908 337.733 164.257 332.141 164.257C326.549 164.257 322.015 168.908 322.015 174.644C322.015 180.381 326.549 185.031 332.141 185.031Z" fill="white"/>
<path d="M336.36 172.332H327.922V173.553H336.36V172.332Z" fill="#263238"/>
<path d="M338.452 175.735H325.841V176.956H338.452V175.735Z" fill="#A6A6A6"/>
<path d="M346.786 213.44C346.781 217.081 345.485 220.595 343.141 223.328C340.796 226.061 337.562 227.826 334.043 228.294C330.523 228.761 326.958 227.9 324.012 225.87C321.065 223.841 318.939 220.781 318.03 217.262C317.121 213.743 317.49 210.005 319.069 206.745C320.648 203.484 323.33 200.925 326.613 199.543C329.896 198.16 333.558 198.051 336.914 199.233C340.271 200.416 343.093 202.81 344.856 205.97C346.125 208.244 346.791 210.82 346.786 213.44Z" fill="#455A64"/>
<path d="M346.786 213.44C346.791 216.312 345.992 219.125 344.485 221.545C342.978 223.965 340.826 225.891 338.284 227.094C335.742 228.297 332.917 228.727 330.144 228.333C327.371 227.939 324.767 226.737 322.639 224.87L332.141 213.44V198.417C334.065 198.414 335.971 198.801 337.749 199.555C339.527 200.308 341.143 201.415 342.504 202.811C343.864 204.206 344.943 205.863 345.678 207.688C346.413 209.512 346.789 211.467 346.786 213.44Z" fill="#29373A"/>
<path d="M342.162 214.689C342.844 208.996 338.897 203.813 333.346 203.114C327.795 202.415 322.743 206.464 322.062 212.158C321.38 217.851 325.327 223.034 330.878 223.733C336.428 224.432 341.481 220.383 342.162 214.689Z" fill="white"/>
<path d="M336.36 211.14H327.922V212.361H336.36V211.14Z" fill="#263238"/>
<path d="M338.441 214.531H325.83V215.752H338.441V214.531Z" fill="#A6A6A6"/>
<path d="M396.317 92.4275H355.71V93.5895H396.317V92.4275Z" fill="#C7C7C7"/>
<path d="M396.317 96.4708H355.71V97.6328H396.317V96.4708Z" fill="#C7C7C7"/>
<path d="M396.317 100.514H355.71V101.676H396.317V100.514Z" fill="#C7C7C7"/>
<path d="M396.317 131.224H355.71V132.386H396.317V131.224Z" fill="#C7C7C7"/>
<path d="M396.317 135.267H355.71V136.429H396.317V135.267Z" fill="#C7C7C7"/>
<path d="M396.317 139.322H355.71V140.484H396.317V139.322Z" fill="#C7C7C7"/>
<path d="M396.317 170.02H355.71V171.182H396.317V170.02Z" fill="#C7C7C7"/>
<path d="M396.317 174.075H355.71V175.237H396.317V174.075Z" fill="#C7C7C7"/>
<path d="M396.317 178.118H355.71V179.28H396.317V178.118Z" fill="#C7C7C7"/>
<path d="M396.317 208.816H355.71V209.978H396.317V208.816Z" fill="#C7C7C7"/>
<path d="M396.317 212.871H355.71V214.033H396.317V212.871Z" fill="#C7C7C7"/>
<path d="M396.317 216.914H355.71V218.076H396.317V216.914Z" fill="#C7C7C7"/>
<path d="M300.516 73.6341C300.874 123.932 300.874 180.347 300.516 230.633C300.157 180.347 300.157 123.92 300.516 73.6341Z" fill="#C7C7C7"/>
<path d="M162.512 526.133C159.912 527.023 85.7259 526.797 82.8939 524.948C81.8305 524.26 81.2294 513.162 80.8711 499.752C80.7709 496.851 80.7208 493.898 80.7208 490.894C80.7208 487.337 80.6284 483.65 80.6053 480.104C80.5128 464.216 80.7208 450.213 80.7208 450.213H129.026V490.894L128.772 499.823C128.772 499.823 157.149 512.948 159.981 515.308C162.813 517.668 165.102 525.28 162.512 526.133Z" fill="#EB9481"/>
<path d="M162.512 526.133C159.923 527.023 85.7143 526.797 82.9055 524.948C81.8999 524.307 81.3104 514.644 80.952 502.491C86.9049 505.313 138.204 516.114 150.306 516.257C161.865 516.375 143.452 506.771 140.493 505.289C148.665 509.178 158.351 513.909 159.969 515.237C162.79 517.608 165.102 525.28 162.512 526.133Z" fill="#263238"/>
<path d="M54.609 222.926C54.609 222.926 79.9233 353.353 81.7034 362.981C82.1195 365.174 76.8139 491.677 76.8139 491.677H132.205C132.205 491.677 132.205 379.936 129.962 360.704C127.72 341.472 99.0303 222.926 99.0303 222.926H54.609Z" fill="#263238"/>
<path d="M54.609 222.926C54.609 222.926 66.9194 286.396 74.9413 328.05L99.0303 222.926H54.609Z" fill="#37474F"/>
<path d="M122.992 477.709C122.206 446.134 121.547 394.497 120.68 363.04C117.525 344.923 112.219 318.707 108.844 300.53L104.163 275.488C110.208 303.862 116.681 334.287 121.802 362.934C122.761 401.196 122.842 439.435 122.957 477.709H122.992Z" fill="#455A64"/>
<path d="M98.7645 526.679C96.1521 527.533 21.9664 526.584 19.1575 524.711C18.0941 524.011 17.5971 512.913 17.3774 499.491C17.3197 496.598 19.2153 450.154 19.2153 450.154L65.96 450.367L65.2087 499.965C65.2087 499.965 93.4358 513.423 96.314 515.794C99.1922 518.166 101.354 525.825 98.7645 526.679Z" fill="#EB9481"/>
<path d="M98.7529 526.679C96.1521 527.544 21.9664 526.584 19.1575 524.711C18.2097 524.082 17.7242 515.225 17.4584 503.89C28.2082 507.21 74.0975 515.747 85.3676 515.604C95.632 515.498 82.2351 508.3 76.9295 505.633C85.0208 509.593 94.6957 514.419 96.3024 515.77C99.2153 518.166 101.365 525.825 98.7529 526.679Z" fill="#263238"/>
<path d="M69.0809 492.685H12.6729C12.6729 492.685 23.3535 407.219 24.2319 392.861C24.6596 385.533 29.2139 305.996 33.352 270.733C29.787 254.481 32.2165 237.449 40.1718 222.926H99.1228C99.1228 222.926 98.1865 249.011 91.4245 266.406C86.1402 268.301 81.0144 270.633 76.0972 273.377C76.0972 273.377 73.1266 382.023 72.1787 400.674C70.9304 424.4 69.0809 492.685 69.0809 492.685Z" fill="#263238"/>
<path d="M61.0705 486.021C62.2264 451.304 65.3589 403.39 66.5726 368.518C67.1968 340.227 68.0984 305.38 69.0462 277.053C68.8035 305.427 68.2256 340.239 67.6707 368.566C66.5148 403.484 63.1974 451.304 61.0705 486.021Z" fill="#455A64"/>
<path d="M101.828 176.766L98.0131 176.565C97.9234 175.504 97.686 174.462 97.308 173.47C95.8169 169.605 92.7769 166.522 90.3726 163.404C92.735 166.634 94.5662 170.238 95.7938 174.075C96.0217 174.847 96.1651 175.642 96.2215 176.446L93.8403 176.328C93.7603 173.963 93.1471 171.65 92.0487 169.569C92.0487 169.51 91.91 169.569 91.9446 169.664C92.8101 171.78 93.1783 174.075 93.0196 176.363L72.3752 175.284C72.063 173.324 71.9007 171.342 71.8898 169.356C71.8898 169.131 71.5777 169.154 71.5892 169.356C71.5628 171.335 71.6478 173.315 71.8435 175.284L70.1212 175.19C69.8777 171.725 70.0602 168.244 70.6645 164.826C70.6694 164.814 70.6712 164.8 70.6698 164.787C70.6684 164.773 70.6638 164.76 70.6564 164.749C70.649 164.738 70.639 164.729 70.6273 164.722C70.6156 164.716 70.6026 164.713 70.5894 164.713C70.5761 164.713 70.5631 164.716 70.5514 164.722C70.5398 164.729 70.5298 164.738 70.5224 164.749C70.515 164.76 70.5103 164.773 70.5089 164.787C70.5075 164.8 70.5093 164.814 70.5142 164.826C69.7371 168.182 69.307 171.611 69.2312 175.059L54.9442 174.312C55.8314 172.146 56.5466 169.909 57.0827 167.625C57.0827 167.59 57.0693 167.557 57.0454 167.533C57.0216 167.508 56.9892 167.494 56.9555 167.494C56.9218 167.494 56.8895 167.508 56.8656 167.533C56.8418 167.557 56.8284 167.59 56.8284 167.625C56.1753 169.949 55.272 172.192 54.1351 174.312L52.0198 174.205C53.7971 170.479 54.9424 166.469 55.4066 162.348C55.4066 162.182 55.1639 162.171 55.1408 162.348C54.5281 166.807 52.3781 170.482 50.2282 174.146L44.8879 173.814C46.8298 170.387 50.1357 167.293 50.6674 163.226C51.2569 158.673 47.3269 156.467 46.2172 152.554C44.3331 146.116 47.5118 141.373 51.4765 137.01C55.1176 132.979 54.8287 128.319 55.7996 123.149C56.4081 119.176 57.6914 115.344 59.591 111.826C61.2383 108.918 63.6784 106.567 66.611 105.063C69.5436 103.559 72.8409 102.967 76.0972 103.36C78.5301 103.427 80.8946 104.2 82.9171 105.589C83.06 105.68 83.1953 105.783 83.3216 105.897C85.6422 107.719 87.4818 110.108 88.6734 112.845C89.1068 113.732 89.4927 114.643 89.8293 115.572C90.3525 117.774 90.7385 120.008 90.9852 122.26C90.9778 122.311 90.9778 122.363 90.9852 122.414C91.722 127.22 94.1986 131.564 97.9207 134.579C103.561 139.322 101.874 146.851 97.1346 154.369C95.1234 157.558 95.0193 159.633 95.7707 161.4C95.8708 161.631 95.9827 161.857 96.1059 162.076C97.1924 164.032 99.1922 165.751 100.545 168.431C101.701 171.039 102.144 173.92 101.828 176.766Z" fill="#263238"/>
<path d="M67.3355 104.818C62.8689 107.192 59.5019 111.285 57.9727 116.201C56.7128 120.137 56.5394 124.418 54.8865 128.224C53.326 131.781 50.6212 134.496 48.4365 137.591C45.5352 141.67 43.6858 146.697 46.0091 151.428C47.454 154.357 50.6327 157.274 50.4825 160.985C50.2513 165.313 46.564 169.463 44.5643 173.032C44.4718 173.198 44.703 173.387 44.8186 173.221C47.5234 169.202 52.251 163.913 50.7021 158.59C49.997 156.159 48.3903 154.286 47.2344 152.199C44.8301 148.156 45.3734 143.899 47.7892 139.749C51.0604 134.176 55.3719 130.619 56.8515 123.908C57.6953 120.066 58.0767 116.118 59.9955 112.644C61.7499 109.451 64.3405 106.827 67.4742 105.067C67.5667 104.996 67.4627 104.747 67.3355 104.818Z" fill="#263238"/>
<path d="M98.7991 167.447C97.2618 165.17 95.3314 163.487 96.2215 160.036C96.8226 157.665 98.4177 155.602 99.5158 153.491C102.267 148.203 103.862 141.539 101.25 136.085C99.7817 133.002 97.2271 132.243 95.0887 129.979C92.4879 127.252 91.5632 123.042 90.7425 119.177C89.5173 113.379 87.9683 106.763 82.2698 105.411C82.2698 105.411 82.2004 105.482 82.2698 105.494C89.5288 107.723 89.4248 117.517 91.517 124.299C92.1134 126.591 93.226 128.707 94.7651 130.477C97.2387 133.085 100.256 133.975 101.516 138.006C102.552 141.893 102.296 146.023 100.787 149.744C99.6314 153.017 97.4236 155.756 96.2908 159.017C95.899 159.924 95.6966 160.905 95.6966 161.898C95.6966 162.89 95.899 163.872 96.2908 164.779C97.0075 166.178 98.2328 167.15 98.9957 168.478C100.004 170.353 100.469 172.484 100.337 174.62C100.337 174.834 100.625 174.81 100.637 174.62C100.831 172.085 100.184 169.557 98.7991 167.447Z" fill="#263238"/>
<path d="M88.2342 157.712C111.942 179.15 133.962 202.674 135.8 214.78C138.343 231.558 128.321 236.324 123.813 236.431C111.526 236.692 88.6388 185.861 80.663 166.475C72.9185 147.622 83.0326 153.029 88.2342 157.712Z" fill="#29373A"/>
<path d="M98.672 203.338L99.0303 222.914H40.4261C40.4261 222.914 40.8885 177.715 56.0655 158.27C63.9487 148.156 73.1035 149.128 79.4378 155.353C81.0445 156.93 98.8685 178.924 101.099 188.552C102.202 193.617 101.331 198.923 98.672 203.338Z" fill="#EBEBEB"/>
<path d="M92.8116 202.923C90.7112 202.844 88.6081 202.884 86.5119 203.042C85.4716 203.136 84.4313 203.279 83.4025 203.457L81.923 203.729C81.3797 203.836 80.848 204.026 80.3047 204.121C80.3047 204.121 80.3047 204.227 80.3047 204.215C80.8133 204.132 81.345 204.144 81.8652 204.097L83.4257 203.943C84.466 203.848 85.5178 203.765 86.5582 203.646C88.6388 203.433 90.7194 203.243 92.8116 203.101C92.8293 203.094 92.8445 203.082 92.8553 203.066C92.8661 203.05 92.8719 203.031 92.8719 203.012C92.8719 202.993 92.8661 202.974 92.8553 202.958C92.8445 202.942 92.8293 202.93 92.8116 202.923Z" fill="#263238"/>
<path d="M101.134 228.475H36.3458L39.0968 220.744H98.9956L101.134 228.475Z" fill="#29373A"/>
<path d="M101.134 228.475H36.3458L39.0968 220.744H98.9956L101.134 228.475Z" fill="black"/>
<path d="M91.6904 229.827H74.9991V219.369H91.6904V229.827ZM77.3109 227.455H89.3785V221.74H77.3109V227.455Z" fill="#29373A"/>
<path d="M78.0507 153.894C78.0507 153.894 90.9043 184.355 91.6672 189.216C92.4301 194.078 97.9438 267.983 97.9438 267.983C97.9438 267.983 109.861 262.73 109.988 262.208C110.115 261.686 98.8685 204.358 99.0303 203.812C99.1921 203.267 104.382 197.421 101.469 189.121C95.1812 171.087 78.0507 153.894 78.0507 153.894Z" fill="#29373A"/>
<path d="M93.4358 209.682L95.3777 182.28L88.4423 175.106L92.0602 174.383C92.0602 174.383 79.2529 155.412 77.9698 153.894C78.2703 154.724 87.6216 176.861 89.4248 183.074C91.0315 188.315 93.5976 208.543 93.4358 209.682Z" fill="#29373A"/>
<path d="M93.4358 209.682L95.3777 182.28L88.4423 175.106L92.0602 174.383C92.0602 174.383 79.2529 155.412 77.9698 153.894C78.2703 154.724 87.6216 176.861 89.4248 183.074C91.0315 188.315 93.5976 208.543 93.4358 209.682Z" fill="black"/>
<path d="M62.9662 152.175C62.9662 152.175 70.0403 190.26 70.5374 193.758C71.0344 197.255 71.5892 270.259 71.5892 270.259L25.5497 262.161L38.4264 222.155C38.7154 221.266 43.2465 177.881 52.4128 162.609C58.0305 153.254 62.9662 152.175 62.9662 152.175Z" fill="#29373A"/>
<path d="M67.7516 218.183C67.7516 218.592 67.5933 218.984 67.3115 219.273C67.0297 219.562 66.6475 219.724 66.249 219.724C65.8504 219.724 65.4682 219.562 65.1864 219.273C64.9046 218.984 64.7463 218.592 64.7463 218.183C64.7463 217.774 64.9046 217.382 65.1864 217.093C65.4682 216.804 65.8504 216.642 66.249 216.642C66.6475 216.642 67.0297 216.804 67.3115 217.093C67.5933 217.382 67.7516 217.774 67.7516 218.183ZM67.7516 218.183C67.7241 217.912 67.5996 217.661 67.4021 217.478C67.2047 217.296 66.9483 217.195 66.6824 217.195C66.4166 217.195 66.1602 217.296 65.9627 217.478C65.7653 217.661 65.6407 217.912 65.6132 218.183C65.5976 218.337 65.6137 218.492 65.6603 218.639C65.7069 218.786 65.7831 218.921 65.8839 219.035C65.9847 219.15 66.1079 219.242 66.2454 219.305C66.383 219.367 66.5319 219.4 66.6824 219.4C66.833 219.4 66.9819 219.367 67.1194 219.305C67.257 219.242 67.3801 219.15 67.4809 219.035C67.5817 218.921 67.6579 218.786 67.7046 218.639C67.7512 218.492 67.7672 218.337 67.7516 218.183Z" fill="#263238"/>
<path d="M67.7516 232.411C67.7516 232.82 67.5933 233.212 67.3115 233.501C67.0297 233.79 66.6475 233.953 66.249 233.953C65.8504 233.953 65.4682 233.79 65.1864 233.501C64.9046 233.212 64.7463 232.82 64.7463 232.411C64.7463 232.003 64.9046 231.611 65.1864 231.322C65.4682 231.032 65.8504 230.87 66.249 230.87C66.6475 230.87 67.0297 231.032 67.3115 231.322C67.5933 231.611 67.7516 232.003 67.7516 232.411ZM67.7516 232.411C67.7241 232.14 67.5996 231.889 67.4021 231.707C67.2047 231.524 66.9483 231.423 66.6824 231.423C66.4166 231.423 66.1602 231.524 65.9627 231.707C65.7653 231.889 65.6407 232.14 65.6132 232.411C65.5976 232.565 65.6137 232.72 65.6603 232.867C65.7069 233.014 65.7831 233.149 65.8839 233.264C65.9847 233.379 66.1079 233.47 66.2454 233.533C66.383 233.596 66.5319 233.628 66.6824 233.628C66.833 233.628 66.9819 233.596 67.1194 233.533C67.257 233.47 67.3801 233.379 67.4809 233.264C67.5817 233.149 67.6579 233.014 67.7046 232.867C67.7512 232.72 67.7672 232.565 67.7516 232.411Z" fill="#263238"/>
<path d="M67.7516 246.557C67.7516 246.966 67.5933 247.358 67.3115 247.647C67.0297 247.936 66.6475 248.098 66.249 248.098C65.8504 248.098 65.4682 247.936 65.1864 247.647C64.9046 247.358 64.7463 246.966 64.7463 246.557C64.7463 246.148 64.9046 245.756 65.1864 245.467C65.4682 245.178 65.8504 245.015 66.249 245.015C66.6475 245.015 67.0297 245.178 67.3115 245.467C67.5933 245.756 67.7516 246.148 67.7516 246.557ZM67.7516 246.557C67.7241 246.286 67.5996 246.035 67.4021 245.852C67.2047 245.669 66.9483 245.568 66.6824 245.568C66.4166 245.568 66.1602 245.669 65.9627 245.852C65.7653 246.035 65.6407 246.286 65.6132 246.557C65.5976 246.71 65.6137 246.866 65.6603 247.013C65.7069 247.159 65.7831 247.295 65.8839 247.409C65.9847 247.524 66.1079 247.616 66.2454 247.679C66.383 247.741 66.5319 247.774 66.6824 247.774C66.833 247.774 66.9819 247.741 67.1194 247.679C67.257 247.616 67.3801 247.524 67.4809 247.409C67.5817 247.295 67.6579 247.159 67.7046 247.013C67.7512 246.866 67.7672 246.71 67.7516 246.557Z" fill="#263238"/>
<path d="M67.7516 260.773C67.7516 261.182 67.5933 261.574 67.3115 261.863C67.0297 262.152 66.6475 262.315 66.249 262.315C65.8504 262.315 65.4682 262.152 65.1864 261.863C64.9046 261.574 64.7463 261.182 64.7463 260.773C64.7463 260.365 64.9046 259.973 65.1864 259.684C65.4682 259.394 65.8504 259.232 66.249 259.232C66.6475 259.232 67.0297 259.394 67.3115 259.684C67.5933 259.973 67.7516 260.365 67.7516 260.773ZM67.7516 260.773C67.7672 260.62 67.7512 260.465 67.7046 260.318C67.6579 260.171 67.5817 260.036 67.4809 259.921C67.3801 259.806 67.257 259.715 67.1194 259.652C66.9819 259.589 66.833 259.557 66.6824 259.557C66.5319 259.557 66.383 259.589 66.2454 259.652C66.1079 259.715 65.9847 259.806 65.8839 259.921C65.7831 260.036 65.7069 260.171 65.6603 260.318C65.6137 260.465 65.5976 260.62 65.6132 260.773C65.6407 261.045 65.7653 261.296 65.9627 261.478C66.1602 261.661 66.4166 261.762 66.6824 261.762C66.9483 261.762 67.2047 261.661 67.4021 261.478C67.5996 261.296 67.7241 261.045 67.7516 260.773Z" fill="#263238"/>
<path d="M64.4226 154.985C64.7347 156.171 70.6067 164.008 76.0626 163.617C77.8311 163.487 77.5652 153.515 77.5652 153.515L77.7039 152.78L79.7152 142.417L67.7285 134.935L65.9947 133.951C65.9947 133.951 65.6248 136.82 65.2087 140.401C65.2087 140.567 65.2087 140.733 65.2087 140.911C65.1712 141.103 65.1442 141.297 65.1277 141.492C65.0584 142.025 64.989 142.571 64.9312 143.116C64.8734 143.662 64.8388 143.934 64.8041 144.373C64.7694 144.812 64.7347 145.239 64.6885 145.677C64.3918 148.77 64.3029 151.88 64.4226 154.985Z" fill="#EB9481"/>
<path d="M65.2087 140.401C66.2902 143.271 67.9682 145.866 70.1261 148.003C72.2839 150.141 74.8698 151.771 77.7039 152.78L79.7152 142.417L67.7285 134.935L65.9947 133.951C65.9947 133.951 65.6248 136.82 65.2087 140.401Z" fill="#263238"/>
<path d="M93.8403 128.627C93.1121 147.148 82.212 148.784 78.3166 148.63C74.7795 148.476 62.7581 147.444 61.6138 128.995C60.4695 110.545 69.1618 104.984 77.2531 104.889C85.3445 104.794 94.5917 110.094 93.8403 128.627Z" fill="#EB9481"/>
<path d="M90.3148 126.493C89.9219 126.369 89.536 126.222 89.1589 126.054C88.7087 125.973 88.3 125.734 88.003 125.378C87.9317 125.253 87.9032 125.107 87.922 124.963C87.9409 124.819 88.006 124.685 88.1071 124.584C88.3362 124.412 88.606 124.306 88.8884 124.277C89.1709 124.248 89.4558 124.296 89.7138 124.418C90.2788 124.581 90.7623 124.958 91.0662 125.473C91.1248 125.592 91.1498 125.725 91.1382 125.858C91.1267 125.99 91.079 126.117 91.0007 126.223C90.9224 126.33 90.8166 126.411 90.6954 126.459C90.5741 126.506 90.4423 126.518 90.3148 126.493Z" fill="#263238"/>
<path d="M77.9814 125.248C78.3989 125.24 78.8157 125.208 79.2297 125.153C79.6754 125.186 80.1189 125.065 80.4897 124.809C80.589 124.706 80.6529 124.573 80.6717 124.43C80.6905 124.286 80.6631 124.141 80.5937 124.015C80.4173 123.784 80.1837 123.606 79.9173 123.5C79.6509 123.393 79.3615 123.362 79.0795 123.41C78.4972 123.421 77.9385 123.648 77.5074 124.05C77.4167 124.149 77.3556 124.273 77.3313 124.407C77.307 124.541 77.3206 124.679 77.3705 124.805C77.4204 124.931 77.5044 125.039 77.6127 125.118C77.721 125.196 77.8489 125.242 77.9814 125.248Z" fill="#263238"/>
<path d="M80.2354 130.168C80.2354 130.168 80.1313 130.168 80.1198 130.263C80.0273 131.532 79.7037 132.955 78.5478 133.239C78.5478 133.239 78.5478 133.322 78.5478 133.311C79.9233 133.275 80.3394 131.378 80.2354 130.168Z" fill="#263238"/>
<path d="M79.276 128.722C77.3225 128.342 76.7214 132.386 78.5362 132.73C80.351 133.073 80.9174 129.042 79.276 128.722Z" fill="#263238"/>
<path d="M78.4784 128.817C78.0969 128.995 77.7039 129.338 77.3225 129.327C76.941 129.315 76.5365 128.817 76.2822 128.354C76.2822 128.354 76.2244 128.354 76.2128 128.354C76.0983 128.715 76.1218 129.107 76.2785 129.45C76.4352 129.794 76.7134 130.063 77.0566 130.204C77.7733 130.417 78.409 129.825 78.7096 129.018C78.7211 128.983 78.6287 128.746 78.4784 128.817Z" fill="#263238"/>
<path d="M87.3326 130.441C87.3326 130.441 87.4251 130.512 87.4135 130.572C87.1708 131.757 87.113 133.275 88.1533 133.868C88.1533 133.868 88.1533 133.951 88.1533 133.939C86.8124 133.56 86.9165 131.627 87.3326 130.441Z" fill="#263238"/>
<path d="M88.6272 129.35C90.6038 129.516 90.1299 133.571 88.292 133.417C86.4541 133.263 86.9627 129.255 88.6272 129.35Z" fill="#263238"/>
<path d="M89.4132 129.718C89.7022 129.967 89.9681 130.406 90.3379 130.477C90.7078 130.548 91.1355 130.157 91.4939 129.765C91.4245 130.536 91.0777 131.319 90.3379 131.378C89.5982 131.437 89.2514 130.702 89.182 129.908C89.1705 129.825 89.2976 129.611 89.4132 129.718Z" fill="#263238"/>
<path d="M84.3735 138.907C83.798 139.569 83.0653 140.068 82.2466 140.354C81.7987 140.497 81.319 140.497 80.8711 140.354C79.9002 140.01 79.9464 139.073 80.1891 138.29C80.3192 137.875 80.4977 137.477 80.7208 137.105C81.7235 138.084 83.0016 138.715 84.3735 138.907Z" fill="#263238"/>
<path d="M82.2466 140.354C81.7987 140.497 81.319 140.497 80.8711 140.354C79.9002 140.01 79.9464 139.073 80.1891 138.29C80.7089 138.345 81.1953 138.579 81.5689 138.954C81.9426 139.328 82.1814 139.822 82.2466 140.354Z" fill="#FF9CBD"/>
<path d="M85.1017 136.476C85.1017 136.476 85.1017 138.385 84.9746 139.275C84.9746 139.358 84.7549 139.358 84.4544 139.334C83.6978 139.365 82.9474 139.182 82.285 138.806C81.6227 138.429 81.0736 137.874 80.6977 137.2C80.6924 137.181 80.6927 137.161 80.6986 137.143C80.7045 137.124 80.7158 137.108 80.7309 137.097C80.746 137.085 80.7642 137.079 80.7831 137.078C80.8019 137.077 80.8206 137.082 80.8364 137.093C81.8297 138.024 83.0916 138.599 84.4313 138.729C84.5238 138.492 84.3273 135.457 84.4313 135.469C85.0924 135.625 85.73 135.873 86.327 136.204C86.4426 132.232 85.934 128.271 86.1189 124.347C86.1189 124.315 86.1311 124.285 86.1528 124.263C86.1744 124.241 86.2038 124.228 86.2345 124.228C86.2651 124.228 86.2946 124.241 86.3162 124.263C86.3379 124.285 86.3501 124.315 86.3501 124.347C87.0142 128.575 87.2659 132.861 87.1014 137.14C87.1014 137.555 85.4254 136.678 85.1017 136.476Z" fill="#263238"/>
<path d="M61.9952 130.868C63.2263 130.519 64.3473 129.846 65.2473 128.917C66.1474 127.987 66.7955 126.833 67.1274 125.568C70.4484 124.755 73.4997 123.053 75.9701 120.635C75.7851 120.979 74.4559 123.505 73.7392 124.773C85.2982 124.714 90.2917 116.592 90.2917 116.592C92.0664 119.006 93.2908 121.798 93.875 124.762C93.875 124.762 95.1927 117.742 92.4995 112.383C91.6476 110.535 90.3311 108.954 88.6855 107.801C87.0398 106.649 85.1245 105.967 83.1367 105.826C80.4976 104.625 77.5913 104.177 74.7246 104.529C71.8579 104.882 69.1373 106.022 66.85 107.83C58.1923 114.576 61.9952 130.868 61.9952 130.868Z" fill="#263238"/>
<path d="M82.5587 124.513C80.5894 125.191 78.5322 125.562 76.4556 125.615C79.7517 125.322 82.9025 124.09 85.5525 122.058C86.6765 121.192 87.6901 120.184 88.5694 119.058C89.5704 117.856 90.3357 116.467 90.8234 114.968C90.8234 114.849 91.0199 114.897 90.9968 114.968C90.6712 116.5 90.101 117.966 89.3092 119.307C88.4656 120.607 87.3959 121.737 86.1536 122.639C85.0499 123.436 83.8389 124.063 82.5587 124.501" fill="#263238"/>
<path d="M64.7232 129.398C64.7232 129.398 61.5213 123.137 58.805 124.24C56.0886 125.343 57.9843 134.046 60.8278 135.575C61.182 135.795 61.5761 135.939 61.9861 135.999C62.3961 136.058 62.8137 136.031 63.2134 135.921C63.6132 135.81 63.9869 135.617 64.3119 135.354C64.637 135.091 64.9066 134.763 65.1046 134.39L64.7232 129.398Z" fill="#EB9481"/>
<path d="M59.406 126.718C59.406 126.718 59.3367 126.718 59.406 126.801C61.3826 127.987 62.238 130.074 62.7581 132.243C62.6627 132.013 62.52 131.806 62.3396 131.637C62.1592 131.468 61.9455 131.341 61.7129 131.264C61.4804 131.188 61.2344 131.164 60.9919 131.194C60.7494 131.223 60.516 131.306 60.3076 131.437V131.568C60.6895 131.494 61.0843 131.544 61.4368 131.712C61.7892 131.88 62.0815 132.157 62.2727 132.504C62.5961 133.082 62.8559 133.694 63.0471 134.33C63.1165 134.532 63.4748 134.473 63.4286 134.247C63.8331 131.473 62.2264 127.37 59.406 126.718Z" fill="#263238"/>
<path d="M63.2552 152.033C65.3494 150.985 67.6662 150.492 69.9941 150.598C72.5833 150.669 77.8427 153.871 77.8427 153.871C77.8427 153.871 84.3851 178.379 80.5359 178.592C75.7851 178.901 62.7119 153.029 63.2552 152.033Z" fill="#EB9481"/>
<path d="M55.4413 155.649C33.3636 173.435 11.6789 204.168 11.517 221.361C11.3668 238.34 17.1463 236.68 18.753 236.573C28.7515 235.897 52.2741 188.671 59.4523 169.427C66.6304 150.183 60.8971 151.25 55.4413 155.649Z" fill="#29373A"/>
<path d="M32.0343 223.317C33.1902 221.183 34.3461 219.06 35.502 216.914L38.9697 210.488C41.2815 206.196 43.5933 201.927 45.7548 197.599C47.9164 193.271 50.2397 188.979 52.4128 184.64C53.5071 182.482 54.5782 180.304 55.6262 178.106C56.7012 175.925 57.6837 173.707 58.6778 171.478C57.1058 176.102 55.2804 180.63 53.2104 185.043C51.1876 189.477 48.9914 193.829 46.772 198.157C44.5527 202.484 42.1484 206.741 39.7441 210.938C37.3399 215.136 34.7738 219.369 32.0343 223.317Z" fill="#263238"/>
<path d="M56.3313 177.17C56.7386 176.404 57.1902 175.663 57.6837 174.952C57.938 174.609 58.1692 174.253 58.4351 173.909C58.7009 173.565 58.9437 173.221 59.2442 172.889C59.0434 173.747 58.6736 174.554 58.1577 175.261C57.6701 176.008 57.0507 176.656 56.3313 177.17Z" fill="#263238"/>
<path d="M128.887 189.963C127.731 181.995 125.42 170.897 122.599 168.621C119.779 166.344 108.971 158.139 105.908 157.096C102.845 156.052 89.1358 150.871 86.6391 152.353C84.6509 153.539 87.0899 158.945 93.5745 161.471C97.1088 162.928 100.556 164.598 103.897 166.475C105.573 167.198 109.676 172.676 108.52 175.142C107.896 176.589 103.816 178.32 101.261 177.17C98.7067 176.02 98.0247 170.862 95.1003 168.467C92.1758 166.071 87.009 166.415 86.7662 167.838C86.5235 169.261 88.188 169.901 90.8581 174.703C92.5804 177.786 92.7653 185.221 96.6376 190.521C98.623 193.657 100.418 196.916 102.013 200.279L128.887 189.963Z" fill="#EB9481"/>
<path d="M92.4417 166.309C91.4983 166.168 90.6129 165.757 89.8872 165.123C89.6046 164.83 89.4014 164.466 89.2976 164.068C89.2685 163.843 89.2685 163.616 89.2976 163.392C89.3047 163.16 89.3905 162.937 89.5404 162.763C89.5404 162.657 89.5404 162.763 89.5404 162.763C89.5404 162.87 89.3786 162.965 89.3092 163.083C89.2413 163.172 89.1903 163.272 89.1589 163.38C89.0897 163.59 89.0546 163.81 89.0549 164.032C89.0846 164.517 89.2672 164.979 89.5751 165.348C89.9537 165.742 90.415 166.042 90.9239 166.225C91.4327 166.408 91.9756 166.469 92.511 166.403L92.4417 166.309Z" fill="#263238"/>
<path d="M122.599 168.597C120.091 164.637 113.687 157.523 107.399 155.127C103.145 153.503 88.6388 160.949 89.1011 163.795C89.5635 166.641 92.0371 166.641 95.7245 166.166C97.0653 165.988 104.139 163.297 105.365 164.815C107.133 166.996 109.422 174.478 109.422 174.478L122.599 168.597Z" fill="#EB9481"/>
<path d="M89.4479 162.68C91.2164 159.598 95.1581 157.938 99.0881 156.598C99.0881 156.598 99.1806 156.669 99.0881 156.693C98.0825 157.025 91.7019 160.131 89.4595 162.728C89.471 162.751 89.4248 162.716 89.4479 162.68Z" fill="#263238"/>
<path d="M122.599 168.597C120.091 164.637 113.687 157.523 107.399 155.127C103.145 153.503 91.7135 162.953 92.1643 165.799C92.6151 168.644 96.1984 168.846 100.14 167.388C101.411 166.925 105.665 163.83 106.89 165.301C108.647 167.471 112.947 172.889 112.947 172.889L122.599 168.597Z" fill="#EB9481"/>
<path d="M110.462 169.569C110.069 168.941 109.93 168.727 109.514 168.111C109.098 167.494 108.671 166.925 108.22 166.309C107.866 165.765 107.42 165.291 106.902 164.909C106.368 164.602 105.752 164.482 105.145 164.566C103.788 164.878 102.509 165.476 101.388 166.32C100.105 167.091 97.4236 168.36 95.3546 168.158C94.7877 168.138 94.2319 167.992 93.7247 167.731C93.3398 167.551 93.0028 167.279 92.7422 166.937C91.8291 165.396 92.9272 163.605 94.06 162.336C96.2837 160.032 98.8958 158.16 101.77 156.811C102.452 156.455 103.145 156.123 103.827 155.791C104.596 155.356 105.448 155.098 106.324 155.033C107.757 155.033 110.115 156.479 110.855 156.918C110.913 156.918 110.948 156.859 110.855 156.823C109.977 156.266 107.769 154.452 105.457 154.606C104.618 154.748 103.809 155.037 103.064 155.459C102.255 155.827 101.469 156.218 100.683 156.645C99.157 157.433 97.6923 158.341 96.3024 159.36C94.9166 160.317 93.7105 161.522 92.7422 162.917C92.3364 163.537 92.1026 164.259 92.066 165.004C92.0293 165.75 92.1912 166.492 92.5342 167.15C92.8427 167.566 93.2367 167.907 93.6882 168.149C94.1397 168.391 94.6376 168.527 95.1465 168.55C95.7526 168.632 96.3667 168.632 96.9728 168.55C98.3127 168.252 99.63 167.856 100.914 167.364C102.163 166.842 103.226 165.953 104.579 165.538C105.192 165.317 105.866 165.356 106.451 165.645C106.977 166.007 107.451 166.442 107.861 166.937C108.714 167.804 109.487 168.749 110.173 169.759C110.451 169.878 110.636 169.795 110.462 169.569Z" fill="#263238"/>
<path d="M124.472 172.047C123.547 170.162 121.929 162.372 120.438 159.989C118.947 157.606 112.15 149.412 109.029 149.804C105.087 150.29 109.272 157.523 111.341 160.475C113.41 163.427 113.132 168.55 113.132 168.55L124.472 172.047Z" fill="#EB9481"/>
<path d="M108.462 155.566C109.202 156.503 109.861 157.546 110.508 158.554C111.173 159.493 111.772 160.48 112.3 161.507C112.739 162.561 113.004 163.683 113.086 164.826C113.086 165.384 113.167 165.953 113.179 166.51C113.19 167.067 113.179 167.755 113.179 168.36C113.179 168.431 113.075 168.443 113.075 168.36C112.989 167.236 112.835 166.12 112.612 165.016C112.407 163.871 112.065 162.756 111.595 161.696C110.647 159.586 109.283 157.724 108.324 155.625C108.266 155.554 108.382 155.495 108.462 155.566Z" fill="#263238"/>
<path d="M113.086 169.427C113.242 171.372 112.915 173.325 112.138 175.107C111.787 176.013 111.374 176.892 110.901 177.739C110.413 178.562 109.877 179.354 109.295 180.11C108.165 181.564 107.217 183.157 106.474 184.853C105.772 186.595 105.283 188.419 105.018 190.283C104.87 188.342 105.089 186.389 105.665 184.533C106.28 182.682 107.195 180.95 108.37 179.411C109.49 177.934 110.462 176.345 111.271 174.668C112.152 173.035 112.765 171.264 113.086 169.427Z" fill="#263238"/>
<path d="M122.668 235.874C114.993 234.807 109.954 221.645 101.215 198.489C99.6776 194.433 119.709 169.451 122.46 173.186C125.928 177.928 135.175 204.014 136.112 211.128C138.03 225.191 131.58 237.154 122.668 235.874Z" fill="#EB9481"/>
<path d="M105.839 211.413L130.575 186.762C130.575 186.762 137.603 207.974 136.944 216.867C136.285 225.76 133.268 235.897 122.83 236.455C115.016 236.87 105.839 211.413 105.839 211.413Z" fill="#29373A"/>
<path d="M113.837 228.475C112.947 227.171 112.15 225.819 111.375 224.455C110.601 223.092 109.884 221.681 109.179 220.27C108.474 218.859 107.85 217.412 107.272 215.942C106.673 214.475 106.194 212.96 105.839 211.413C106.497 212.847 107.191 214.247 107.885 215.658L109.965 219.879C110.636 221.29 111.318 222.701 111.965 224.135C112.612 225.57 113.259 227.005 113.837 228.475Z" fill="#263238"/>
<path d="M111.167 215.705C112.323 214.353 113.687 213.108 114.959 211.828C116.23 210.547 117.525 209.29 118.831 208.033C121.443 205.543 124.056 203.065 126.714 200.623C127.442 199.947 128.171 199.283 128.91 198.631C129.65 197.979 130.575 197.327 131.349 196.615C131.349 196.615 131.5 196.615 131.442 196.71C130.806 197.338 130.286 198.05 129.639 198.69C128.991 199.33 128.344 200.006 127.685 200.647C126.402 201.903 125.096 203.16 123.801 204.405C121.189 206.907 118.577 209.397 115.895 211.804C114.381 213.168 112.89 214.579 111.271 215.847C111.253 215.853 111.234 215.852 111.216 215.846C111.198 215.84 111.182 215.829 111.171 215.813C111.16 215.798 111.153 215.779 111.153 215.76C111.152 215.74 111.157 215.721 111.167 215.705Z" fill="#263238"/>
<path d="M62.8159 208.686L102.637 211.721L114.346 154.487L74.5252 151.452L62.8159 208.686Z" fill="#263238"/>
<path d="M64.7694 208.84L104.59 211.875L116.299 154.629L76.4787 151.594L64.7694 208.84Z" fill="#455A64"/>
<path d="M95.9556 179.6C95.7682 180.669 95.2064 181.63 94.376 182.302C93.5456 182.975 92.5041 183.313 91.4476 183.252C90.9497 183.229 90.4625 183.097 90.0192 182.863C89.5758 182.629 89.1868 182.301 88.8785 181.899C88.5703 181.497 88.35 181.032 88.2329 180.535C88.1157 180.038 88.1043 179.521 88.1995 179.019C88.3869 177.951 88.9488 176.99 89.7791 176.317C90.6095 175.645 91.6511 175.307 92.7075 175.367C93.2054 175.39 93.6926 175.523 94.136 175.757C94.5793 175.99 94.9684 176.319 95.2766 176.721C95.5849 177.123 95.8051 177.588 95.9223 178.085C96.0394 178.582 96.0508 179.098 95.9556 179.6Z" fill="white"/>
<path d="M16.4527 236.538C23.8505 237.581 33.0746 231.688 56.9786 213.784C60.2845 211.306 49.5115 182.612 45.8589 185.114C41.2352 188.22 23.9776 201.263 22.8333 202.378C13.1815 211.804 11.4361 235.826 16.4527 236.538Z" fill="#EB9481"/>
<path d="M37.3167 193.781C37.3167 193.781 44.125 183.987 49.2572 179.968C54.6962 175.939 61.0067 173.322 67.6476 172.344C74.8142 171.265 92.8578 173.731 93.0774 179.185C93.2739 184.118 74.9413 180.644 74.9413 180.644C74.9413 180.644 94.1987 181.023 93.3664 187.023C92.5342 193.022 71.4852 187.734 71.4852 187.734C71.4852 187.734 91.2627 188.576 89.4479 194.623C88.0839 199.188 68.7573 195.512 68.7573 195.512C68.7573 195.512 85.749 196.354 84.5353 201.109C83.206 206.373 65.1509 204.121 65.1509 204.121C60.088 215.681 52.8405 218.942 47.5696 220.72C46.2865 221.171 37.3167 193.781 37.3167 193.781Z" fill="#EB9481"/>
<path d="M68.2949 180.075C70.6067 180.075 72.8492 179.98 75.1032 180.146C77.3572 180.312 79.6227 180.561 81.8536 180.952C84.7855 181.397 87.6563 182.192 90.4073 183.323C85.3791 181.711 77.2994 180.952 75.0454 180.822C72.7914 180.691 70.5374 180.371 68.2833 180.205L68.2949 180.075Z" fill="#263238"/>
<path d="M67.5551 188.434C70.4449 188.517 73.3346 188.434 76.2128 188.695C79.091 188.956 81.7958 189.359 84.6509 189.762C84.8705 189.762 84.7896 189.904 84.5584 189.88C81.6918 189.596 79.0217 189.548 76.155 189.287C73.2884 189.027 70.3755 188.659 67.5436 188.505C67.5089 188.54 67.5089 188.434 67.5551 188.434Z" fill="#263238"/>
<path d="M65.6941 195.489C70.1305 195.503 74.5537 195.984 78.8945 196.923C79.1141 196.923 78.987 197.089 78.7558 197.066C74.375 196.508 70.9419 196.034 65.6941 195.643C65.5901 195.655 65.567 195.489 65.6941 195.489Z" fill="#263238"/>
<path d="M37.3167 189.892L46.7373 225.096C46.7373 225.096 21.4693 240.368 15.8863 236.324C10.3033 232.281 13.956 211.958 20.2672 204.204C22.9258 200.967 37.3167 189.892 37.3167 189.892Z" fill="#29373A"/>
<path d="M37.6288 191.066L37.259 189.88H37.3514C34.9703 191.884 32.5776 193.864 30.208 195.88C27.8384 197.896 25.4803 199.911 23.2725 202.046C22.131 203.074 21.0611 204.184 20.0707 205.366C19.1185 206.577 18.2642 207.866 17.5162 209.219C16.0572 211.982 15.0313 214.963 14.4761 218.053C14.719 214.87 15.559 211.766 16.9498 208.911C17.6422 207.49 18.4832 206.15 19.4581 204.915C20.4623 203.69 21.5434 202.533 22.6946 201.453C25.0064 199.319 27.3876 197.315 29.815 195.37C32.2423 193.426 34.7622 191.6 37.3283 189.845H37.4092V189.928L37.6288 191.066Z" fill="#263238"/>
<path d="M31.78 198.631C32.3579 200.35 32.7972 202.188 33.2711 203.907C33.745 205.626 34.2074 207.464 34.6466 209.207C35.5251 212.764 36.3805 216.321 37.1896 219.879C37.4092 220.851 37.6288 221.823 37.8369 222.807C38.045 223.791 38.149 224.93 38.3802 225.973C38.3748 225.986 38.3659 225.997 38.3546 226.004C38.3433 226.012 38.3301 226.016 38.3166 226.016C38.3031 226.016 38.2899 226.012 38.2786 226.004C38.2673 225.997 38.2584 225.986 38.253 225.973C38.0219 225.108 37.6751 224.266 37.4208 223.4C37.1665 222.535 36.9353 221.61 36.7041 220.709C36.2418 218.942 35.791 217.151 35.3517 215.397C34.4732 211.84 33.6063 208.282 32.8434 204.725C32.4157 202.71 31.9187 200.682 31.6066 198.643C31.6006 198.629 31.5979 198.613 31.5989 198.598C31.5998 198.583 31.6044 198.568 31.6121 198.555C31.6198 198.542 31.6304 198.531 31.6431 198.523C31.6558 198.515 31.6702 198.511 31.685 198.51C31.6999 198.509 31.7147 198.511 31.7283 198.517C31.7419 198.524 31.7539 198.533 31.7632 198.545C31.7726 198.557 31.7789 198.571 31.7819 198.586C31.7848 198.601 31.7841 198.616 31.78 198.631Z" fill="#263238"/>
<path d="M45.9051 221.965C46.3443 223.044 46.7258 224.123 47.061 225.214L46.8645 225.357C43.374 227.86 39.5514 229.836 35.5135 231.226C39.1546 228.949 42.8535 226.898 46.5871 224.859L46.4484 225.202C46.2403 224.135 46.0554 223.068 45.9051 221.989V221.965Z" fill="#263238"/>
<path d="M460.041 176.695V249.58H396.189L386.676 262.22V176.695H460.041Z" fill="white"/>
<path d="M460.041 176.683C460.134 195.003 460.307 231.534 460.319 249.853C460.319 249.96 396.328 249.853 396.19 249.972L396.502 249.818L387.035 262.481L386.272 263.489V262.22C386.353 261.817 386.341 176.755 386.399 176.411C404.836 176.411 441.628 176.565 460.053 176.695L460.041 176.683ZM460.041 176.683C441.744 176.826 404.963 176.944 386.676 176.98C387.416 175.154 386.873 262.599 387.093 262.208L386.341 261.947L395.877 249.32L395.993 249.154H396.19C396.016 249.26 461.325 248.869 459.764 249.569C459.764 231.404 459.949 194.848 460.053 176.683H460.041Z" fill="#263238"/>
<path d="M460.041 176.695H386.676V181.32H460.041V176.695Z" fill="#37474F"/>
<path d="M390.93 179.055C390.93 179.228 390.88 179.398 390.786 179.542C390.692 179.687 390.558 179.799 390.402 179.866C390.246 179.932 390.074 179.949 389.908 179.915C389.742 179.882 389.59 179.798 389.47 179.675C389.35 179.553 389.269 179.396 389.236 179.226C389.203 179.056 389.22 178.879 389.284 178.719C389.349 178.559 389.459 178.422 389.6 178.325C389.74 178.229 389.906 178.177 390.075 178.177C390.187 178.177 390.298 178.2 390.402 178.244C390.506 178.288 390.6 178.353 390.68 178.434C390.759 178.516 390.822 178.613 390.865 178.719C390.908 178.826 390.93 178.94 390.93 179.055Z" fill="#C7C7C7"/>
<path d="M394.421 179.055C394.421 179.228 394.371 179.398 394.277 179.542C394.183 179.687 394.049 179.799 393.893 179.866C393.737 179.932 393.565 179.949 393.399 179.915C393.233 179.882 393.08 179.798 392.961 179.675C392.841 179.553 392.76 179.396 392.727 179.226C392.694 179.056 392.711 178.879 392.775 178.719C392.84 178.559 392.95 178.422 393.09 178.325C393.231 178.229 393.396 178.177 393.566 178.177C393.678 178.177 393.789 178.2 393.893 178.244C393.997 178.288 394.091 178.353 394.17 178.434C394.25 178.516 394.313 178.613 394.356 178.719C394.399 178.826 394.421 178.94 394.421 179.055Z" fill="white"/>
<path d="M397.912 179.055C397.912 179.228 397.862 179.398 397.768 179.542C397.674 179.687 397.54 179.799 397.384 179.866C397.227 179.932 397.055 179.949 396.89 179.915C396.724 179.882 396.571 179.798 396.452 179.675C396.332 179.553 396.25 179.396 396.217 179.226C396.184 179.056 396.201 178.879 396.266 178.719C396.331 178.559 396.441 178.422 396.581 178.325C396.722 178.229 396.887 178.177 397.056 178.177C397.169 178.177 397.28 178.2 397.384 178.244C397.487 178.288 397.582 178.353 397.661 178.434C397.741 178.516 397.804 178.613 397.847 178.719C397.89 178.826 397.912 178.94 397.912 179.055Z" fill="#29373A"/>
<path d="M426.197 192.928L421.377 210.251V228.262C416.72 228.262 412.254 226.364 408.961 222.986C405.668 219.609 403.818 215.027 403.818 210.251C403.818 205.474 405.668 200.893 408.961 197.515C412.254 194.137 416.72 192.24 421.377 192.24C423.006 192.242 424.628 192.474 426.197 192.928Z" fill="#29373A"/>
<path d="M431.768 224.764C428.76 227.051 425.11 228.279 421.365 228.262V210.251L431.768 224.764Z" fill="#C7C7C7"/>
<path d="M438.935 210.251C438.936 213.077 438.288 215.864 437.042 218.386C435.797 220.907 433.99 223.092 431.768 224.764L421.365 210.251L435.016 198.927C437.552 202.128 438.935 206.127 438.935 210.251Z" fill="#37474F"/>
<path d="M438.935 193.094L425.284 204.417L430.104 187.094C433.578 188.116 436.662 190.211 438.935 193.094Z" fill="#263238"/>
<path d="M406.28 237H403.449V239.905H406.28V237Z" fill="#263238"/>
<path d="M439.305 237H408.257V237.854H439.305V237Z" fill="#455A64"/>
<path d="M428.324 239.051H408.257V239.905H428.324V239.051Z" fill="#455A64"/>
<path d="M174.58 55.2439V128.129H110.728L101.215 140.769V55.2439H174.58Z" fill="white"/>
<path d="M174.58 55.2439C174.673 73.563 174.846 110.094 174.857 128.414C174.857 128.52 110.867 128.414 110.728 128.532L111.052 128.378L101.527 141.029L100.764 142.037V140.769C100.845 140.365 100.834 55.3032 100.891 54.9475C119.386 54.9475 156.12 55.1135 174.545 55.2439H174.58ZM174.58 55.2439C156.282 55.3862 119.501 55.5048 101.215 55.5404C101.955 53.7144 101.411 141.16 101.631 140.769L100.88 140.496L110.416 127.88L110.543 127.714H110.774C110.601 127.821 175.909 127.429 174.349 128.117C174.349 109.964 174.534 73.4089 174.638 55.2439H174.58Z" fill="#263238"/>
<path d="M122.807 116.96H119.975V119.865H122.807V116.96Z" fill="#29373A"/>
<path d="M155.82 116.96H124.772V117.813H155.82V116.96Z" fill="#455A64"/>
<path d="M144.839 119.011H124.772V119.865H144.839V119.011Z" fill="#455A64"/>
<path d="M113.456 74.5946C121.605 74.5116 129.754 74.5353 137.892 74.4997C146.029 74.4641 154.19 74.4997 162.327 74.5946C154.236 74.6657 146.041 74.5946 137.892 74.6776C129.743 74.7606 121.605 74.7132 113.456 74.5946Z" fill="#455A64"/>
<path d="M113.456 81.6495C121.605 81.5784 129.754 81.6495 137.892 81.5665C146.029 81.4835 154.19 81.5665 162.327 81.6495C154.236 81.7206 146.041 81.7088 137.892 81.7325C129.743 81.7562 121.605 81.7206 113.456 81.6495Z" fill="#455A64"/>
<path d="M113.456 88.7163C121.605 88.6451 129.754 88.7163 137.892 88.6333C146.029 88.5503 154.19 88.6333 162.327 88.7163C154.236 88.7874 146.041 88.7163 137.892 88.7993C129.743 88.8823 121.605 88.7874 113.456 88.7163Z" fill="#455A64"/>
<path d="M113.456 95.7831C121.605 95.7001 129.754 95.7831 137.892 95.6882C146.029 95.5933 154.19 95.6882 162.327 95.7831C154.236 95.8542 146.041 95.7831 137.892 95.8661C129.743 95.9491 121.605 95.8542 113.456 95.7831Z" fill="#455A64"/>
<path d="M113.456 102.838C121.605 102.767 129.754 102.838 137.892 102.755C146.029 102.672 154.19 102.755 162.327 102.838C154.236 102.909 146.041 102.838 137.892 102.921C129.743 103.004 121.605 102.909 113.456 102.838Z" fill="#455A64"/>
<path d="M123.304 69.9703C123.374 76.5747 123.304 83.1672 123.385 89.7716C123.466 96.3759 123.385 102.968 123.304 109.573C123.223 102.968 123.246 96.3759 123.212 89.7716C123.177 83.1672 123.223 76.5984 123.304 69.9703Z" fill="#455A64"/>
<path d="M131.754 69.9703C131.823 76.5747 131.754 83.1672 131.835 89.7716C131.916 96.3759 131.835 102.968 131.754 109.573C131.685 102.968 131.696 96.3759 131.673 89.7716C131.65 83.1672 131.685 76.5984 131.754 69.9703Z" fill="#455A64"/>
<path d="M140.204 69.9703C140.273 76.5747 140.204 83.1672 140.284 89.7716C140.365 96.3759 140.284 102.968 140.204 109.573C140.134 102.968 140.146 96.3759 140.123 89.7716C140.1 83.1672 140.134 76.5984 140.204 69.9703Z" fill="#455A64"/>
<path d="M148.653 69.9703C148.723 76.5747 148.653 83.1672 148.734 89.7716C148.815 96.3759 148.734 102.968 148.653 109.573C148.584 102.968 148.595 96.3759 148.572 89.7716C148.549 83.1672 148.584 76.5984 148.653 69.9703Z" fill="#455A64"/>
<path d="M157.103 69.9703C157.172 76.5747 157.103 83.1672 157.184 89.7716C157.265 96.3759 157.184 102.968 157.103 109.573C157.033 102.968 157.103 96.3759 157.022 89.7716C156.941 83.1672 157.01 76.5984 157.103 69.9703Z" fill="#455A64"/>
<path d="M114.693 97.7158C116.184 97.7158 117.074 90.5423 119.189 90.5423C121.305 90.5423 121.501 95.7831 123.304 95.7831C125.107 95.7831 125.027 86.582 127.419 86.582C129.812 86.582 129.246 90.317 131.754 90.317C134.262 90.317 133.303 81.6495 135.927 81.6495C138.551 81.6495 137.476 93.5895 140.204 93.5895C141.926 93.5895 142.596 89.7953 144.654 89.7953C146.018 89.7953 146.815 91.6924 148.595 91.6924C150.375 91.6924 150.768 84.4003 152.988 84.4003C155.207 84.4003 155.473 88.7163 157.103 88.7163C158.733 88.7163 159.334 81.6021 162.327 81.6021V109.549H114.693V97.7158Z" fill="#29373A"/>
<path d="M114.693 98.0596V97.3719C115.144 97.3719 115.768 95.7001 116.219 94.4669C117.005 92.3682 117.802 90.1984 119.189 90.1984C120.576 90.1984 121.166 91.7872 121.744 93.1982C122.195 94.2891 122.669 95.4274 123.304 95.4274C123.94 95.4274 124.333 93.2219 124.691 91.6094C125.269 88.9653 125.847 86.2382 127.419 86.2382C128.795 86.2382 129.338 87.3053 129.824 88.2539C130.309 89.2024 130.69 89.9731 131.754 89.9731C132.817 89.9731 133.083 87.9456 133.453 85.9892C133.881 83.6889 134.32 81.2464 135.927 81.2464C137.533 81.2464 137.915 84.2462 138.343 87.4239C138.689 89.985 139.117 93.1864 140.204 93.1864C140.851 93.1864 141.359 92.392 141.937 91.562C142.631 90.5423 143.405 89.3921 144.654 89.3921C145.37 89.4713 146.038 89.7974 146.549 90.317C147.103 90.8721 147.825 91.2153 148.595 91.2893C149.22 91.2893 149.751 89.5581 150.225 88.159C150.896 86.1077 151.578 83.9972 152.988 83.9972C154.398 83.9972 155.08 85.3726 155.693 86.582C156.132 87.4713 156.548 88.3131 157.103 88.3131C157.658 88.3131 158.108 86.9733 158.582 85.7876C159.38 83.76 160.386 81.2464 162.327 81.2464V81.9341C160.825 81.9341 160.016 84.1158 159.195 86.0484C158.548 87.6966 158.039 89.0009 157.103 89.0009C156.167 89.0009 155.635 87.9811 155.092 86.9022C154.548 85.8232 153.936 84.6849 152.988 84.6849C152.04 84.6849 151.427 86.6532 150.861 88.3843C150.237 90.3051 149.705 91.9414 148.549 91.9414C147.629 91.8789 146.761 91.484 146.099 90.8268C145.697 90.4073 145.174 90.1327 144.608 90.0443C143.706 90.0443 143.07 90.9928 142.446 91.9177C141.822 92.8425 141.151 93.8385 140.134 93.8385C138.47 93.8385 138.054 90.7438 137.603 87.4832C137.268 84.9932 136.851 81.8985 135.857 81.8985C134.863 81.8985 134.401 84.092 134.043 86.0247C133.603 88.3961 133.199 90.566 131.731 90.566C130.263 90.566 129.696 89.4633 129.211 88.4791C128.725 87.495 128.367 86.831 127.396 86.831C126.425 86.831 125.789 89.5107 125.316 91.6687C124.784 94.0994 124.368 96.0321 123.281 96.0321C122.195 96.0321 121.674 94.7396 121.108 93.3642C120.542 91.9888 120.045 90.7913 119.166 90.7913C118.288 90.7913 117.455 92.9137 116.854 94.6211C116.253 96.3285 115.606 98.0596 114.693 98.0596Z" fill="#29373A"/>
<path d="M114.693 70.4328C114.751 76.9541 114.797 83.4755 114.797 90.0087V109.596L114.647 109.43H150.375L162.281 109.525L150.375 109.608H114.485V109.454L114.543 89.8664C114.589 83.4873 114.635 76.9541 114.693 70.4328Z" fill="#455A64"/>
<path d="M174.58 55.2439H101.215V59.8682H174.58V55.2439Z" fill="#37474F"/>
<path d="M105.469 57.556C105.469 57.7296 105.419 57.8992 105.325 58.0435C105.231 58.1878 105.097 58.3003 104.941 58.3667C104.784 58.4331 104.612 58.4505 104.446 58.4166C104.281 58.3828 104.128 58.2992 104.008 58.1765C103.889 58.0538 103.807 57.8974 103.774 57.7272C103.741 57.557 103.758 57.3806 103.823 57.2203C103.888 57.0599 103.997 56.9229 104.138 56.8265C104.279 56.7301 104.444 56.6786 104.613 56.6786C104.84 56.6786 105.058 56.7711 105.218 56.9356C105.379 57.1002 105.469 57.3233 105.469 57.556Z" fill="#C7C7C7"/>
<path d="M108.96 57.556C108.96 57.7296 108.909 57.8992 108.815 58.0435C108.721 58.1878 108.588 58.3003 108.431 58.3667C108.275 58.4331 108.103 58.4505 107.937 58.4166C107.771 58.3828 107.619 58.2992 107.499 58.1765C107.38 58.0538 107.298 57.8974 107.265 57.7272C107.232 57.557 107.249 57.3806 107.314 57.2203C107.379 57.0599 107.488 56.9229 107.629 56.8265C107.77 56.7301 107.935 56.6786 108.104 56.6786C108.216 56.6786 108.328 56.7013 108.431 56.7454C108.535 56.7895 108.63 56.8541 108.709 56.9356C108.788 57.0171 108.851 57.1138 108.894 57.2203C108.937 57.3267 108.96 57.4408 108.96 57.556Z" fill="white"/>
<path d="M112.45 57.556C112.45 57.7296 112.4 57.8992 112.306 58.0435C112.212 58.1878 112.079 58.3003 111.922 58.3667C111.766 58.4331 111.594 58.4505 111.428 58.4166C111.262 58.3828 111.11 58.2992 110.99 58.1765C110.871 58.0538 110.789 57.8974 110.756 57.7272C110.723 57.557 110.74 57.3806 110.805 57.2203C110.869 57.0599 110.979 56.9229 111.12 56.8265C111.26 56.7301 111.426 56.6786 111.595 56.6786C111.822 56.6786 112.039 56.7711 112.2 56.9356C112.36 57.1002 112.45 57.3233 112.45 57.556Z" fill="#29373A"/>
</svg>
